<svg width="28" height="28" viewBox="0 0 28 28" fill="none" xmlns="http://www.w3.org/2000/svg">
<circle cx="14" cy="14" r="14" fill="#208EF0"/>
<path d="M15.9792 13.6815C15.4631 14.615 14.7137 15.3644 13.7803 15.8804C13.0095 16.3065 12.1133 16.5734 11.1194 16.6791H10.4768H3.70647C4.04564 16.6791 4.81118 14.4785 4.43498 12.602C4.21679 11.9244 4.10125 11.1788 4.10125 10.3781C4.10125 9.12575 4.38391 8.00818 4.89993 7.0747C5.41596 6.14122 6.16536 5.39183 7.09884 4.8758C8.03232 4.35977 9.14988 4.07711 10.4022 4.07711H10.4768C11.7292 4.07711 12.8468 4.35977 13.7803 4.8758C14.5699 5.31234 15.2279 5.9159 15.7243 6.65663L18.9381 4.10363C18.1251 2.97895 17.0829 2.04598 15.8622 1.35533C14.3247 0.485477 12.5039 0 10.501 0H10.3781C8.37517 0 6.5544 0.485477 5.01691 1.35533C3.47941 2.22518 2.22518 3.47941 1.35533 5.0169C0.485478 6.5544 0 8.37517 0 10.3781C0 12.381 0.485478 14.2018 1.35533 15.7393C2.22518 17.2768 3.47941 18.531 5.01691 19.4009C6.5544 20.2707 8.37517 20.7562 10.3781 20.7562H10.501C12.5039 20.7562 14.3247 20.2707 15.8622 19.4009C17.2671 18.6061 18.4355 17.4903 19.2902 16.1307L16.0499 13.5496C16.0268 13.594 16.0032 13.638 15.9792 13.6815Z" transform="translate(4 3.37811)" fill="white"/>
</svg>
