<?xml version="1.0" encoding="UTF-8"?>
<svg width="300px" height="63px" viewBox="0 0 300 63" version="1.1" xmlns="http://www.w3.org/2000/svg" xmlns:xlink="http://www.w3.org/1999/xlink">
    <!-- Generator: Sketch 50.2 (55047) - http://www.bohemiancoding.com/sketch -->
    <title>Combined Shape</title>
    <desc>Created with Sketch.</desc>
    <defs></defs>
    <g id="Page-1" stroke="none" stroke-width="1" fill="none" fill-rule="evenodd">
        <path d="M27.7454695,52.8695228 C29.624961,51.8305418 31.1338148,50.321688 32.1727958,48.4421966 C32.2212772,48.3544948 32.2687356,48.2659861 32.3151607,48.1766804 L38.8393252,53.3734649 C37.1183956,56.1108552 34.7659446,58.3573749 31.9372808,59.957715 C28.8416479,61.7090952 25.1756704,62.6865672 21.1429122,62.6865672 L20.8955224,62.6865672 C16.8627641,62.6865672 13.1967867,61.7090952 10.1011537,59.957715 C7.00552076,58.2063348 4.48023233,55.6810464 2.72885214,52.5854135 C0.977471953,49.4897805 4.93870451e-16,45.823803 0,41.7910448 C-3.11087346e-16,37.7582865 0.977471953,34.092309 2.72885214,30.9966761 C4.48023233,27.9010431 7.00552076,25.3757547 10.1011537,23.6243745 C13.1967867,21.8729943 16.8627641,20.8955224 20.8955224,20.8955224 L21.1429122,20.8955224 C25.1756704,20.8955224 28.8416479,21.8729943 31.9372808,23.6243745 C34.3951796,25.0149513 36.4935226,26.8934143 38.1304168,29.1578706 L31.6596073,34.2981298 C30.6601977,32.8067263 29.3354592,31.5915114 27.7454695,30.7125667 C25.8659781,29.6735857 23.6158491,29.1044776 21.0943177,29.1044776 L20.9441168,29.1044776 C18.4225855,29.1044776 16.1724564,29.6735857 14.292965,30.7125667 C12.4134736,31.7515477 10.9046197,33.2604015 9.86563875,35.139893 C8.82665777,37.0193844 8.25754964,39.2695134 8.25754964,41.7910448 C8.25754964,43.4031644 8.49017689,44.9043463 8.92949767,46.2686567 C9.68693886,50.0467901 8.14559256,54.4776119 7.46268657,54.4776119 C7.46268657,54.4776119 12.0065636,54.4776119 21.0943177,54.4776119 L22.3880597,54.4776119 C24.3892813,54.2648573 26.1937013,53.7273387 27.7454695,52.8695228 Z M253.888819,44.0298507 C254.124267,45.656846 254.618841,47.1386634 255.339432,48.4421966 C256.378413,50.321688 257.887267,51.8305418 259.766759,52.8695228 C261.64625,53.9085038 263.896379,54.4776119 266.41791,54.4776119 L267.910448,54.4776119 C270.431979,54.4776119 272.682108,53.9085038 274.5616,52.8695228 C275.918391,52.1194896 277.082033,51.1245917 278.015192,49.9221615 L283.44094,55.3479098 C281.923134,57.2026151 280.074016,58.7608714 277.958548,59.957715 C274.862915,61.7090952 271.196937,62.6865672 267.164179,62.6865672 L266.41791,62.6865672 C262.385152,62.6865672 258.719175,61.7090952 255.623542,59.957715 C252.527909,58.2063348 250.00262,55.6810464 248.25124,52.5854135 C246.829806,50.0729735 245.918151,47.1848433 245.625103,44.0298507 C245.540747,43.5370494 245.522388,43.0393254 245.522388,42.5373134 L245.522388,40.2985075 C245.522388,29.5825347 254.2094,20.8955224 264.925373,20.8955224 C275.751579,20.8955224 284.634477,29.4668371 285.02088,40.2861449 L285.101738,42.5501514 C285.119493,43.0473076 285.118421,43.5407696 285.099161,44.0298507 L253.888819,44.0298507 Z M265.298507,29.1044776 C260.355543,29.1044776 256.136725,32.204922 254.480702,36.5671642 L276.116313,36.5671642 C274.46029,32.204922 270.241472,29.1044776 265.298507,29.1044776 Z M120.149254,21.641791 L128.358209,21.641791 L128.358209,61.9402985 L120.149254,61.9402985 L120.149254,58.7692309 C116.807602,61.2314904 112.678204,62.6865672 108.208955,62.6865672 C97.0808297,62.6865672 88.0597015,53.665439 88.0597015,42.5373134 L88.0597015,41.0447761 C88.0597015,29.9166506 97.0808297,20.8955224 108.208955,20.8955224 C112.678204,20.8955224 116.807602,22.3505991 120.149254,24.8128587 L120.149254,21.641791 Z M120.149254,34.1261709 C119.164408,32.7131434 117.881082,31.5574857 116.352644,30.7125667 C114.473153,29.6735857 112.223024,29.1044776 109.701493,29.1044776 L108.955224,29.1044776 C106.433693,29.1044776 104.183564,29.6735857 102.304072,30.7125667 C100.424581,31.7515477 98.9157268,33.2604015 97.8767458,35.139893 C96.8377648,37.0193844 96.2686567,39.2695134 96.2686567,41.7910448 C96.2686567,44.3125761 96.8377648,46.5627051 97.8767458,48.4421966 C98.9157268,50.321688 100.424581,51.8305418 102.304072,52.8695228 C104.183564,53.9085038 106.433693,54.4776119 108.955224,54.4776119 L109.701493,54.4776119 C112.223024,54.4776119 114.473153,53.9085038 116.352644,52.8695228 C117.881082,52.0246038 119.164408,50.8689461 120.149254,49.4559186 L120.149254,34.1261709 Z M74.6268657,61.9402985 L74.6268657,41.4179104 C74.6268657,39.0580706 74.0453197,36.9032982 73.0077207,35.0790859 C71.9701217,33.2548736 70.4764697,31.7612216 68.6522574,30.7236226 C66.8280451,29.6860235 64.6732726,29.1044776 62.3134328,29.1044776 C59.953593,29.1044776 57.7988206,29.6860235 55.9746083,30.7236226 C54.4867434,31.5699096 53.2187793,32.7195799 52.238806,34.1045434 L52.238806,61.9402985 L44.0298507,61.9402985 L44.0298507,1.49253731 L52.238806,1.49253731 L52.238806,24.4482338 C55.4016275,22.2104603 59.2636716,20.8955224 63.4328358,20.8955224 C74.1488086,20.8955224 82.8358209,29.5825347 82.8358209,40.2985075 L82.8358209,61.9402985 L74.6268657,61.9402985 Z M184.328358,19.0298507 L184.328358,21.641791 L197.014925,21.641791 L197.014925,29.1044776 L184.328358,29.1044776 L184.328358,61.9402985 L176.119403,61.9402985 L176.119403,29.1044776 L167.164179,29.1044776 L167.164179,21.641791 L176.119403,21.641791 L176.119403,17.9104478 C176.119403,8.0187806 184.138184,1.81706978e-15 194.029851,0 C195.463065,-2.63277157e-16 196.856961,0.168341611 198.192844,0.486330508 L196.092719,8.32410287 C195.785847,8.2795636 195.471379,8.24114162 195.149254,8.20895522 C187.680501,7.46268657 184.328358,13.0536352 184.328358,19.0298507 Z M150,42.9104478 C150,48.8866633 153.352143,54.4776119 160.820896,53.7313433 C161.143021,53.6991569 161.457489,53.6607349 161.764361,53.6161956 L163.864486,61.453968 C162.528602,61.7719569 161.134707,61.9402985 159.701493,61.9402985 C149.809825,61.9402985 141.791045,53.9215179 141.791045,44.0298507 L141.791045,29.1044776 L132.835821,29.1044776 L132.835821,21.641791 L141.791045,21.641791 L141.791045,7.46268657 L150,7.46268657 L150,21.641791 L162.686567,21.641791 L162.686567,29.1044776 L150,29.1044776 L150,42.9104478 Z M202.238806,44.7761194 L202.238806,21.641791 L210.447761,21.641791 L210.447761,43.2835821 C210.447761,49.4658741 213.220693,54.4776119 221.641791,54.4776119 C226.718112,54.4776119 229.742004,52.6564478 231.343284,49.8555268 L231.343284,21.641791 L239.552239,21.641791 L239.552239,61.9402985 L231.343284,61.9402985 L231.343284,58.7582932 C228.27702,61.2163023 224.384836,62.6865672 220.149254,62.6865672 C210.257587,62.6865672 202.238806,54.6677866 202.238806,44.7761194 Z M291.791045,1.49253731 L300,1.49253731 L300,61.9402985 L291.791045,61.9402985 L291.791045,1.49253731 Z" id="Combined-Shape" fill="#208EF0"></path>
    </g>
</svg>